<svg width="111" height="50" viewBox="0 0 111 50" fill="none" xmlns="http://www.w3.org/2000/svg">
<g clip-path="url(#clip0_159_120)">
<path d="M79.6372 16.7183C76.8994 16.7183 74.4223 17.8156 72.6134 19.6028C70.7664 21.4226 69.6256 23.9431 69.6256 26.7353C69.6256 30.5758 66.5021 33.7048 62.6561 33.7048C61.1785 33.7048 59.8042 33.2431 58.6797 32.4554L69.9244 19.6517L68.5881 18.6684C66.8606 17.3973 64.8073 16.7237 62.6561 16.7237C57.1315 16.7237 52.6445 21.2161 52.6445 26.7407C52.6445 32.2653 57.137 36.7523 62.6561 36.7523C68.1752 36.7523 72.6677 32.2598 72.6677 26.7407C72.6677 25.1545 73.2 23.6932 74.0909 22.5199C75.3675 20.8522 77.3774 19.7712 79.6372 19.7712C81.7232 19.7712 83.6842 20.6946 85.0151 22.308L87.3618 20.3741C85.4497 18.06 82.6358 16.7291 79.6372 16.7291V16.7183ZM55.6866 26.7353C55.6866 22.8893 58.8101 19.7657 62.6561 19.7657C63.5796 19.7657 64.4759 19.945 65.3125 20.2872L56.61 30.1956C56.0234 29.1743 55.6866 27.9901 55.6866 26.7353ZM87.3781 33.091C85.466 35.416 82.6467 36.7469 79.6427 36.7469C76.9537 36.7469 74.3843 35.655 72.5156 33.7646C73.1403 32.8791 73.6564 31.9122 74.0366 30.8746C75.3458 32.6455 77.4426 33.6994 79.6427 33.6994C81.8427 33.6994 83.6951 32.7705 85.0314 31.1571L87.3836 33.091H87.3781Z" fill="url(#paint0_linear_159_120)"/>
<path d="M7.01357 36.6654C4.41153 36.6654 2.29297 34.5469 2.29297 31.9448V17.0497H5.33501V31.9448C5.33501 32.8683 6.08466 33.618 7.00814 33.618C7.93161 33.618 8.68126 32.8683 8.68126 31.9448V25.122C8.68126 20.5317 12.4132 16.7998 17.0034 16.7998H17.3511C21.9413 16.7998 25.6732 20.5317 25.6732 25.122V36.5296H22.6312V25.122C22.6312 22.2103 20.2628 19.8473 17.3565 19.8473H17.0089C14.0972 19.8473 11.7342 22.2157 11.7342 25.122V31.9448C11.7342 34.5469 9.6156 36.6654 7.01357 36.6654Z" fill="url(#paint1_linear_159_120)"/>
<path d="M42.126 16.7998H35.1836V36.6654H42.126C47.6017 36.6654 52.0561 32.211 52.0561 26.7353C52.0561 21.2597 47.6017 16.8052 42.126 16.8052V16.7998ZM42.126 33.618H38.2256V19.8418H42.126C45.9231 19.8418 49.014 22.9328 49.014 26.7299C49.014 30.527 45.9231 33.618 42.126 33.618Z" fill="url(#paint2_linear_159_120)"/>
<path d="M33.8428 17.0498H30.8008V36.5297H33.8428V17.0498Z" fill="url(#paint3_linear_159_120)"/>
<path d="M36.3737 0.916016C30.8926 0.916016 26.4328 5.37587 26.4328 10.8515V13.1602H26.3947V16.2023H26.4328V39.1425C26.4328 42.9451 23.3418 46.036 19.5393 46.036H18.002V49.0781H19.5393C25.0204 49.0781 29.4748 44.6182 29.4748 39.1425V16.2077H33.8423V13.1657H29.4748V10.857C29.4748 7.05442 32.5657 3.96349 36.3683 3.96349H37.9056V0.916016H36.3683H36.3737Z" fill="url(#paint4_linear_159_120)"/>
<path d="M93.0378 26.078L109.253 16.7183H103.163L92.5924 22.8186V16.7183H89.5449V24.5787V27.5827V36.2036H92.5924V29.3373L104.473 36.2036H110.562L93.0378 26.078Z" fill="url(#paint5_linear_159_120)"/>
<path d="M3.66086 15.1482C3.26431 15.1482 2.86232 15.083 2.46577 14.9472C1.77045 14.7082 1.1729 14.2682 0.732893 13.6869C0.651409 13.5728 0.673138 13.4153 0.781783 13.3338C0.895859 13.2523 1.05339 13.2741 1.13488 13.3827C1.51513 13.8879 2.03119 14.2627 2.62874 14.4692C4.2747 15.0395 6.0782 14.165 6.64858 12.519C6.8713 11.878 6.88217 11.1935 6.68117 10.5471C6.63772 10.4113 6.71377 10.2701 6.84957 10.2266C6.98538 10.1831 7.12662 10.2592 7.17007 10.395C7.40366 11.1446 7.39279 11.9377 7.13205 12.682C6.60512 14.1975 5.18188 15.1482 3.66629 15.1482H3.66086Z" fill="url(#paint6_linear_159_120)"/>
<path d="M0.341938 12.5083C0.227861 12.5083 0.124649 12.4268 0.0974881 12.3127C-0.0600463 11.6392 -0.0220207 10.9384 0.206132 10.2865C0.526633 9.36305 1.18936 8.61884 2.06938 8.18969C2.9494 7.76055 3.9435 7.70079 4.87241 8.02129C5.44822 8.22229 5.96972 8.56452 6.37713 9.00996C6.46948 9.11317 6.46405 9.27614 6.36084 9.36848C6.25763 9.46083 6.09466 9.4554 6.00231 9.35219C5.64922 8.9665 5.20377 8.67316 4.70401 8.49933C3.90547 8.22229 3.05262 8.27661 2.2921 8.64057C1.53159 9.00996 0.961211 9.65096 0.6896 10.4495C0.49404 11.0144 0.461447 11.6174 0.597252 12.1987C0.629846 12.3345 0.54293 12.4703 0.407125 12.5029C0.385396 12.5029 0.369099 12.5083 0.34737 12.5083H0.341938Z" fill="url(#paint7_linear_159_120)"/>
</g>
<defs>
<linearGradient id="paint0_linear_159_120" x1="52.6391" y1="26.7353" x2="87.3727" y2="26.7353" gradientUnits="userSpaceOnUse">
<stop stop-color="#F0B61B"/>
<stop offset="1" stop-color="#F26E51"/>
</linearGradient>
<linearGradient id="paint1_linear_159_120" x1="2.2984" y1="26.7353" x2="25.6787" y2="26.7353" gradientUnits="userSpaceOnUse">
<stop stop-color="#3D68B1"/>
<stop offset="1" stop-color="#2269B2"/>
</linearGradient>
<linearGradient id="paint2_linear_159_120" x1="35.1836" y1="26.7353" x2="52.0615" y2="26.7353" gradientUnits="userSpaceOnUse">
<stop stop-color="#3D68B1"/>
<stop offset="1" stop-color="#2269B2"/>
</linearGradient>
<linearGradient id="paint3_linear_159_120" x1="30.8008" y1="26.7898" x2="33.8483" y2="26.7898" gradientUnits="userSpaceOnUse">
<stop stop-color="#3D68B1"/>
<stop offset="1" stop-color="#2269B2"/>
</linearGradient>
<linearGradient id="paint4_linear_159_120" x1="17.9965" y1="25.0025" x2="37.911" y2="25.0025" gradientUnits="userSpaceOnUse">
<stop stop-color="#3D68B1"/>
<stop offset="1" stop-color="#2269B2"/>
</linearGradient>
<linearGradient id="paint5_linear_159_120" x1="89.5449" y1="26.4582" x2="110.562" y2="26.4582" gradientUnits="userSpaceOnUse">
<stop stop-color="#3D68B1"/>
<stop offset="1" stop-color="#2269B2"/>
</linearGradient>
<linearGradient id="paint6_linear_159_120" x1="0.684003" y1="12.682" x2="7.33304" y2="12.682" gradientUnits="userSpaceOnUse">
<stop stop-color="#3E6BB3"/>
<stop offset="1" stop-color="#2269B2"/>
</linearGradient>
<linearGradient id="paint7_linear_159_120" x1="-0.000291846" y1="10.1616" x2="6.43689" y2="10.1616" gradientUnits="userSpaceOnUse">
<stop stop-color="#F0B61B"/>
<stop offset="1" stop-color="#F26E51"/>
</linearGradient>
<clipPath id="clip0_159_120">
<rect width="110.562" height="48.1675" fill="white" transform="translate(0 0.916016)"/>
</clipPath>
</defs>
</svg>
